Normalized EMG Linear Envelopes
nRows=128
nColumns=4

endheader
time	 med_gas_r	  soleus_r	 tib_ant_r	
2.9375	  0.010937	  0.024142	  0.005434	
3	  0.010717	  0.025883	  0.005471	
3.0625	  0.011042	  0.029598	  0.005580	
3.125	  0.011962	  0.033027	  0.005712	
3.1875	  0.012847	  0.034656	  0.005739	
3.25	  0.013616	  0.034671	  0.005740	
3.3125	  0.014812	  0.033549	  0.005815	
3.375	  0.015956	  0.032338	  0.006083	
3.4375	  0.016071	  0.030930	  0.006459	
3.5	  0.015716	  0.029947	  0.006799	
3.5625	  0.015419	  0.029558	  0.006971	
3.625	  0.014961	  0.029376	  0.006916	
3.6875	  0.014816	  0.029152	  0.006564	
3.75	  0.015035	  0.028757	  0.006064	
3.8125	  0.015197	  0.027852	  0.005750	
3.875	  0.014793	  0.026737	  0.005926	
3.9375	  0.014281	  0.026172	  0.006969	
4	  0.013815	  0.026386	  0.009090	
4.0625	  0.013118	  0.027596	  0.012041	
4.125	  0.012634	  0.029200	  0.014706	
4.1875	  0.012806	  0.030749	  0.014740	
4.25	  0.013301	  0.031260	  0.011861	
4.3125	  0.013540	  0.029453	  0.008713	
4.375	  0.013348	  0.026206	  0.006561	
4.4375	  0.012593	  0.022880	  0.005293	
4.5	  0.011814	  0.020391	  0.004662	
4.5625	  0.011190	  0.021123	  0.004514	
4.625	  0.011032	  0.028615	  0.005037	
4.6875	  0.012802	  0.047005	  0.007014	
4.75	  0.019480	  0.081063	  0.011931	
4.8125	  0.034817	  0.131810	  0.021219	
4.875	  0.060069	  0.188733	  0.034496	
4.9375	  0.094446	  0.233856	  0.049384	
5	  0.136673	  0.265270	  0.064670	
5.0625	  0.180377	  0.300494	  0.079692	
5.125	  0.213575	  0.356972	  0.093899	
5.1875	  0.224357	  0.428788	  0.108134	
5.25	  0.223018	  0.492314	  0.120169	
5.3125	  0.228785	  0.526909	  0.127061	
5.375	  0.239398	  0.528691	  0.128969	
5.4375	  0.251532	  0.523422	  0.130745	
5.5	  0.277261	  0.532957	  0.134480	
5.5625	  0.317227	  0.559237	  0.140702	
5.625	  0.363307	  0.596918	  0.148549	
5.6875	  0.404659	  0.632095	  0.156047	
5.75	  0.414315	  0.640052	  0.160127	
5.8125	  0.400423	  0.622868	  0.159313	
5.875	  0.394544	  0.603568	  0.159429	
5.9375	  0.410062	  0.585851	  0.161718	
6	  0.448894	  0.590880	  0.165892	
6.0625	  0.507239	  0.633582	  0.171843	
6.125	  0.565640	  0.691187	  0.180489	
6.1875	  0.594447	  0.730281	  0.192854	
6.25	  0.594130	  0.747965	  0.203920	
6.3125	  0.581358	  0.749475	  0.206197	
6.375	  0.575006	  0.757641	  0.200584	
6.4375	  0.579100	  0.782023	  0.194157	
6.5	  0.602797	  0.817404	  0.191206	
6.5625	  0.653991	  0.857733	  0.189030	
6.625	  0.722701	  0.875839	  0.184521	
6.6875	  0.782123	  0.867313	  0.177375	
6.75	  0.808585	  0.838463	  0.173447	
6.8125	  0.809096	  0.815616	  0.175358	
6.875	  0.800119	  0.819721	  0.182793	
6.9375	  0.780935	  0.845763	  0.194874	
7	  0.749139	  0.878909	  0.209467	
7.0625	  0.724145	  0.902901	  0.223817	
7.125	  0.718643	  0.902410	  0.232421	
7.1875	  0.726684	  0.876216	  0.234754	
7.25	  0.747059	  0.841747	  0.235732	
7.3125	  0.780474	  0.825252	  0.237045	
7.375	  0.800719	  0.820283	  0.234853	
7.4375	  0.774965	  0.813246	  0.229770	
7.5	  0.724968	  0.804086	  0.221424	
7.5625	  0.674883	  0.803843	  0.208999	
7.625	  0.636100	  0.816704	  0.198690	
7.6875	  0.607626	  0.833102	  0.190575	
7.75	  0.597590	  0.849268	  0.187541	
7.8125	  0.611655	  0.865250	  0.189725	
7.875	  0.654767	  0.891042	  0.191975	
7.9375	  0.713966	  0.919590	  0.193126	
8	  0.770346	  0.944441	  0.195548	
8.0625	  0.805162	  0.958629	  0.197666	
8.125	  0.794385	  0.957670	  0.193442	
8.1875	  0.756069	  0.946237	  0.184767	
8.25	  0.715189	  0.934172	  0.181996	
8.3125	  0.691461	  0.921947	  0.188058	
8.375	  0.698739	  0.920759	  0.203065	
8.4375	  0.731807	  0.935443	  0.218679	
8.5	  0.763579	  0.946254	  0.227336	
8.5625	  0.777029	  0.950231	  0.223139	
8.625	  0.757832	  0.938094	  0.209390	
8.6875	  0.717626	  0.919327	  0.196888	
8.75	  0.677520	  0.906709	  0.187871	
8.8125	  0.656180	  0.913362	  0.182516	
8.875	  0.662315	  0.944800	  0.178804	
8.9375	  0.691878	  0.974718	  0.181741	
9	  0.726911	  0.985779	  0.195213	
9.0625	  0.757336	  0.983234	  0.214515	
9.125	  0.790850	  0.990716	  0.229200	
9.1875	  0.826334	  0.998836	  0.234636	
9.25	  0.866358	  0.983222	  0.233797	
9.3125	  0.913749	  0.948477	  0.229924	
9.375	  0.933960	  0.922037	  0.222691	
9.4375	  0.901808	  0.911085	  0.214314	
9.5	  0.843372	  0.933263	  0.207397	
9.5625	  0.787640	  0.978402	  0.207279	
9.625	  0.739721	  0.999934	  0.212988	
9.6875	  0.703874	  0.967939	  0.220469	
9.75	  0.688527	  0.887500	  0.224694	
9.8125	  0.701992	  0.805622	  0.221593	
9.875	  0.750639	  0.768263	  0.212862	
9.9375	  0.780287	  0.769399	  0.203124	
10	  0.745902	  0.783401	  0.194784	
10.0625	  0.688964	  0.792163	  0.186858	
10.125	  0.649781	  0.778372	  0.183720	
10.1875	  0.624453	  0.737632	  0.183866	
10.25	  0.593516	  0.693383	  0.182372	
10.3125	  0.544276	  0.661034	  0.180479	
10.375	  0.472251	  0.634075	  0.170848	
10.4375	  0.378873	  0.579474	  0.147972	
10.5	  0.280493	  0.459587	  0.114116	
10.5625	  0.190726	  0.312182	  0.078375	
10.625	  0.115339	  0.184048	  0.048905	
10.6875	  0.061859	  0.096391	  0.028089	
10.75	  0.031284	  0.049969	  0.015875	
10.8125	  0.017842	  0.033182	  0.011155	
10.875	  0.014024	  0.031553	  0.010839	
